<svg width="101" height="41" viewBox="0 0 101 41" fill="none" xmlns="http://www.w3.org/2000/svg">
<path d="M50.4525 0.976685C22.4697 0.976685 0.0385742 9.74516 0.0385742 20.7388C0.0385742 31.6655 22.6545 40.5017 50.4525 40.5017C78.2511 40.5017 100.867 31.6359 100.867 20.7388C100.867 9.84175 78.2511 0.976685 50.4525 0.976685Z" fill="#D4D2E3"/>
<path d="M70.31 24.925C70.3235 25.0155 70.4372 25.1023 70.5472 25.1433C70.5878 25.1574 70.6076 25.1857 70.5652 25.2819C70.2514 25.9853 69.9627 26.3908 69.5692 27.002C69.2071 27.5667 68.7994 28.0073 68.3058 28.4311C67.5611 29.0752 66.527 29.7764 65.6721 29.3051C65.2924 29.0991 65.1281 28.5434 65.1354 28.0937C65.1535 26.8288 65.6917 25.5304 66.6856 24.2542C67.8972 22.6948 69.2367 21.8859 70.1158 22.328C71.0253 22.7815 70.735 23.8824 70.3277 24.7464C70.2961 24.8134 70.2961 24.8699 70.3097 24.9246M80.0695 15.0695C80.1349 14.9489 80.0661 14.8607 79.9203 14.8607C79.1606 14.8607 78.1639 14.8625 77.3724 14.8625C77.1839 14.8625 77.0865 14.886 76.9977 15.0699C76.7054 15.6551 73.145 21.2334 72.4823 22.3167C72.3705 22.4817 72.2343 22.4585 72.2185 22.2695C72.1513 21.6261 71.6198 20.8865 70.7824 20.5326C70.1443 20.262 69.5204 20.213 68.8717 20.303C67.7007 20.4675 66.6574 21.1133 65.7402 21.8416C64.3577 22.9403 63.165 24.3643 61.6253 25.4165C60.7848 25.9892 59.6338 26.4888 58.8636 25.7431C58.1666 25.0675 58.2453 23.5671 59.3118 22.4065C59.4241 22.2849 59.5589 22.3876 59.5377 22.4956C59.4371 23.0204 59.5602 23.5424 59.9417 23.9083C60.407 24.3444 61.0729 24.3936 61.6428 24.1025C62.3153 23.7542 62.7105 23.0815 62.8257 22.318C63.0038 21.1337 62.1319 20.0892 61.0407 20.0054C60.1543 19.9404 59.3042 20.2628 58.4759 20.9774C58.0606 21.3376 57.8248 21.6037 57.4656 22.1376C57.3781 22.2692 57.2437 22.2823 57.2478 22.0881C57.2883 20.5718 56.689 19.7187 55.49 19.6909C54.5592 19.6673 53.5649 20.1956 52.7898 20.8416C51.9402 21.5549 51.1973 22.5002 50.4009 23.3884C50.3017 23.4978 50.2155 23.4926 50.1876 23.2804C50.165 22.2758 49.922 21.3027 49.4773 20.6117C49.3199 20.3713 48.9886 20.2525 48.7103 20.4146C48.5817 20.4882 48.1347 20.7032 47.8092 20.9771C47.6477 21.1162 47.5846 21.3175 47.6563 21.5756C48.0856 23.0765 47.9913 24.7829 47.4087 26.2242C46.8738 27.5443 45.8344 28.7348 44.6126 29.1378C43.8078 29.4046 42.9711 29.274 42.4533 28.5281C41.7423 27.4986 42.0294 25.7081 43.0894 24.2215C44.0248 22.9124 45.3779 22.0809 46.7275 21.5455C46.8862 21.4814 46.9192 21.3748 46.8741 21.2339C46.801 21.0019 46.6837 20.686 46.6364 20.5419C46.5124 20.1973 46.1659 20.1416 45.7426 20.1897C44.762 20.309 43.8774 20.6602 43.0036 21.1494C40.7154 22.4303 39.5682 24.9094 39.0655 26.2357C38.8234 26.8729 38.6164 27.2703 38.3489 27.6227C37.9881 28.0967 37.5353 28.5282 36.7073 29.2884C36.6325 29.3582 36.5766 29.5033 36.6397 29.6386C36.724 29.8215 37.1547 30.4573 37.2762 30.514C37.411 30.5833 37.5674 30.4857 37.6301 30.4395C38.2095 30.0289 38.9027 29.3782 39.2419 28.9368C39.3609 28.7855 39.4831 28.8491 39.5463 29.0787C39.8628 30.2594 40.6917 31.2234 41.8379 31.6267C43.936 32.3664 46.1121 31.2957 47.7547 29.4319C48.7986 28.2472 49.1753 27.4853 49.5755 26.9674C50.2536 26.0891 51.5912 24.1241 53.1844 22.8626C53.7687 22.3973 54.4601 22.0424 54.8078 22.2781C55.0869 22.4672 55.1771 22.9065 54.7293 23.7577C53.1049 26.8587 50.7149 30.502 50.2766 31.3855C50.1963 31.5387 50.2676 31.6594 50.42 31.6594C51.27 31.655 52.1126 31.6572 52.8842 31.6572C53.0127 31.6525 53.0701 31.5893 53.1346 31.4946C54.3812 29.4546 55.5543 27.5131 56.8118 25.5057C56.8821 25.3873 56.947 25.4773 56.9498 25.5292C56.9768 25.9949 57.085 26.6319 57.3497 27.0503C57.8251 27.8236 58.4987 28.1559 59.2457 28.161C59.8402 28.1704 60.1409 28.0737 60.7819 27.8234C61.3036 27.6212 61.7222 27.3558 62.0436 27.1156C62.2312 26.9789 62.2641 27.2075 62.2596 27.2424C61.971 28.8619 62.3273 30.7807 63.8669 31.5763C65.7094 32.5261 67.7335 31.1912 68.8983 29.9861C69.0124 29.8702 69.1345 29.8824 69.1463 30.1327C69.1733 30.5928 69.3699 31.1388 69.734 31.5209C70.7101 32.5449 72.6796 32.1391 74.6562 30.5397C75.9252 29.5157 77.2531 28.069 78.4525 26.537C78.4976 26.4776 78.53 26.3824 78.4435 26.2858C78.2608 26.0859 77.9966 25.8573 77.8154 25.6812C77.7329 25.6076 77.6116 25.6288 77.5422 25.6837C76.3127 26.9061 75.206 28.3001 73.6065 29.4529C73.067 29.8465 72.2072 30.1641 71.8211 29.6175C71.6705 29.4053 71.6876 29.112 71.8346 28.727C72.301 27.5112 79.6846 15.7592 80.0679 15.0661" fill="white"/>
<path d="M45.3309 16.4878C45.3625 16.6623 45.4275 16.6962 45.5032 16.6816C45.8793 16.6029 46.2909 16.2795 46.5346 15.9046C46.7564 15.5647 46.8606 15.0742 46.6401 14.8777C46.4435 14.7009 46.1233 14.7509 45.886 14.9701C45.4134 15.4066 45.2699 16.026 45.3308 16.4882M26.5121 31.6156C23.759 31.6344 21.3336 29.857 21.0553 26.778C20.9006 25.0718 21.362 23.5512 22.2855 22.2985C23.1051 21.1822 24.4918 20.2549 25.6656 20.0283C26.0475 19.9552 26.5608 20 26.7729 20.2659C27.1057 20.6708 27.0101 21.1157 26.6773 21.2932C25.7818 21.7711 24.7042 22.5894 24.171 23.7068C23.7386 24.6188 23.6512 25.7179 24.3117 26.7649C25.4173 28.5099 28.4991 28.5579 31.3645 25.775C32.0741 25.0939 32.7092 24.4395 33.3547 23.6643C34.6167 22.1558 35.0365 21.6061 36.7141 19.1734C36.7321 19.1452 36.7411 19.1083 36.7321 19.0904C36.7186 19.0574 36.6961 19.0527 36.646 19.048C35.5261 19.081 34.5497 19.4294 33.6007 20.1709C33.3274 20.3792 32.934 20.35 32.7618 20.0756C32.5702 19.7654 32.7078 19.3616 33.023 19.1336C34.5497 18.0236 36.2174 17.8223 37.9206 17.5218C37.9192 17.5218 38.0388 17.5265 38.1362 17.3926C38.8353 16.4546 39.3632 15.6085 40.1085 14.6598C40.8595 13.6973 41.8295 12.8135 42.5706 12.1496C43.6051 11.2197 44.2686 10.9067 44.9429 10.5232C45.1205 10.4261 44.9203 10.3101 44.8662 10.3101C41.1017 9.57047 37.1889 8.61336 33.4503 10.0602C30.8611 11.0703 29.7264 13.2168 30.2722 14.6511C30.6605 15.6685 31.9404 15.8339 33.1388 15.2209C34.134 14.7111 35.0551 13.8895 35.708 12.8318C36.0732 12.2444 36.843 12.6682 36.4271 13.6882C35.3331 16.3763 33.2431 18.5085 30.6973 18.5986C28.5306 18.6721 27.1327 17.0058 27.1373 14.9501C27.1463 10.8954 31.464 8.2245 36.0017 7.82521C41.4665 7.35309 46.6425 8.87486 52.0684 9.56289C56.2256 10.0892 60.2113 10.1001 64.3899 9.09662C64.8839 8.98442 65.2305 9.31394 65.1983 9.83551C65.1577 10.5895 64.5989 11.3156 63.2227 12.1002C61.6575 12.9976 60.0201 13.2699 58.31 13.2845C54.1748 13.3223 50.3229 11.6354 46.3368 10.73C46.3413 10.9124 46.3874 11.1297 46.2413 11.2449C44.0333 12.9474 42.0375 14.6763 40.7009 17.1047C40.6558 17.1608 40.6783 17.214 40.7582 17.2084C41.9187 17.1438 42.9623 17.1127 44.0458 17.0222C44.2352 17.0033 44.2423 16.9562 44.2257 16.8119C44.1296 15.9749 44.3637 15.0204 45.0679 14.3639C45.7888 13.6883 46.6913 13.6114 47.2896 14.098C47.9698 14.6521 47.9096 15.6486 47.5376 16.396C47.1588 17.1543 46.5332 17.5598 45.9329 17.7567C45.9329 17.7567 45.8066 17.785 45.8255 17.9048C45.8481 18.0962 46.6672 18.5701 46.7372 18.6963C46.8048 18.8165 46.7687 19.0028 46.6456 19.1456C46.5591 19.2493 46.4233 19.3464 46.2497 19.3431C46.1095 19.3402 46.0243 19.2894 45.8448 19.188C45.4777 18.9802 45.019 18.6383 44.713 18.2354C44.6088 18.0991 44.5556 18.0963 44.2954 18.1114C43.1229 18.1821 41.2948 18.3669 40.0562 18.5286C39.7559 18.5664 39.7117 18.6262 39.6499 18.7351C37.6751 22.1394 35.5666 25.8106 33.2515 28.2685C30.7683 30.9039 28.7043 31.5978 26.5131 31.6158" fill="white"/>
<path d="M50.4515 4.20821C24.7081 4.20821 3.84117 11.645 3.84117 20.7451C3.84117 29.8459 24.7081 37.2833 50.4515 37.2833C76.1944 37.2833 97.06 29.8459 97.06 20.7451C97.06 11.645 76.1944 4.20821 50.4515 4.20821ZM50.4515 38.782C23.771 38.782 2.14258 30.7067 2.14258 20.7451C2.14258 10.782 23.771 2.70813 50.4515 2.70813C77.1295 2.70813 98.7565 10.782 98.7565 20.7451C98.7565 30.7067 77.1295 38.782 50.4515 38.782Z" fill="white"/>
</svg>
