<svg width="99" height="66" viewBox="0 0 99 66" fill="none" xmlns="http://www.w3.org/2000/svg">
<path d="M11.7502 55.1746L13.249 55.3612C13.927 55.4358 13.9983 56.0327 13.9983 56.4057V58.2337H7.11111V56.4057C7.11111 56.0327 7.18248 55.4358 7.8605 55.3612L9.35927 55.1746V53.6078H0.437988V55.1746L1.93676 55.3612C2.61478 55.4358 2.68615 56.0327 2.68615 56.4057V62.4492C2.68615 62.8223 2.61478 63.4192 1.93676 63.4938L0.437988 63.6803V65.2471H9.35927V63.6803L7.8605 63.4938C7.18248 63.4192 7.11111 62.8223 7.11111 62.4492V60.6212H13.9627V62.4492C13.9627 62.8223 13.8913 63.4192 13.2133 63.4938L11.7145 63.6803V65.2471H20.6358V63.6803L19.137 63.4938C18.459 63.4192 18.3876 62.8223 18.3876 62.4492V56.4057C18.3876 56.0327 18.459 55.4358 19.137 55.3612L20.6358 55.1746V53.6078H11.7145V55.1746H11.7502Z" fill="#D4D2E3"/>
<path d="M71.166 53.6078H60.175V55.1746L61.4953 55.3238C61.9592 55.3985 62.2804 55.585 62.2804 56.2565V62.4119C62.2804 62.785 62.209 63.3819 61.531 63.4565L60.0322 63.643V65.2098H71.166C75.1627 65.2098 78.4458 63.5311 78.4458 59.3902C78.4458 55.2492 75.1627 53.6078 71.166 53.6078ZM70.3452 63.0088H66.5983V55.8461H70.3452C72.5577 55.8461 73.3071 56.928 73.3071 59.4275C73.3071 61.8896 72.5577 63.0088 70.3452 63.0088Z" fill="#D4D2E3"/>
<path d="M97.1449 63.4938C96.4312 63.4192 96.217 62.9342 96.0029 62.5984L90.8643 54.3912C90.5074 53.7943 90.2219 53.6078 89.6867 53.6078H81.265V55.1746L83.299 55.3985C83.5845 55.4358 83.977 55.8461 83.6559 56.3684L79.8376 62.8223C79.6948 63.0834 79.4807 63.3819 79.0525 63.4565L77.5537 63.643V65.2098H84.6551V63.643L83.4418 63.5311C82.9065 63.4565 82.621 63.0834 82.9065 62.6357L83.4774 61.6658H90.329L90.8286 62.4492C91.2925 63.158 90.7215 63.4565 90.2219 63.4938L88.973 63.643V65.2098H98.6079V63.643L97.1449 63.4938ZM84.6551 59.614L86.7605 56.0326L89.0086 59.614H84.6551Z" fill="#D4D2E3"/>
<path d="M52.2168 55.1742L53.7155 55.3607C54.3936 55.4353 54.4649 56.0322 54.4649 56.4053V62.225L48.5769 54.0924C48.3271 53.7193 48.0773 53.6074 47.435 53.6074H39.7983V55.1742L41.2971 55.3607C41.9751 55.4353 42.0465 56.0322 42.0465 56.4053V62.4488C42.0465 62.8219 41.9751 63.4188 41.2971 63.4934L39.7983 63.6799V65.2467H46.9354V63.6799L45.4366 63.4934C44.7586 63.4188 44.6872 62.8219 44.6872 62.4488V56.6291L50.5753 64.7244C50.8607 65.0975 51.0748 65.2094 51.7172 65.2094H51.7885H57.1413V56.368C57.1413 55.9949 57.2127 55.398 57.8907 55.3234L59.3895 55.1369V53.5701H52.2881L52.2168 55.1742Z" fill="#D4D2E3"/>
<path d="M30.1993 53.1969C22.9552 53.1969 21.0996 56.5171 21.0996 59.3896C21.0996 62.2622 22.9552 65.6197 30.1993 65.6197C37.4434 65.6197 39.299 62.2995 39.299 59.4269C39.299 56.5171 37.4434 53.1969 30.1993 53.1969ZM30.1993 63.4186C27.3802 63.4186 26.2383 62.1876 26.2383 59.4269C26.2383 56.6663 27.4159 55.4352 30.1993 55.4352C33.0184 55.4352 34.1604 56.6663 34.1604 59.4269C34.1604 62.1876 33.0184 63.4186 30.1993 63.4186Z" fill="#D4D2E3"/>
<path d="M61.852 4.55103C60.6387 10.2588 60.1391 12.9075 59.1399 17.0111C58.1764 20.9655 57.427 24.6587 56.1424 26.4494C54.8577 28.2774 53.1091 28.6504 51.9315 28.7997C51.3249 28.8743 50.861 28.9116 49.5406 28.9116C48.2203 28.9116 47.7564 28.8743 47.1497 28.7997C45.9721 28.6504 44.2235 28.2774 42.9389 26.4494C41.6542 24.6587 40.9048 20.9655 39.977 17.0111C38.9778 12.8702 38.4782 10.2588 37.2649 4.55103C37.2649 4.55103 36.0516 4.58833 35.5164 4.62564C34.767 4.66294 34.196 4.73755 33.5894 4.81216C33.5894 4.81216 34.3031 16.5634 34.6242 21.5624C34.9454 26.7852 35.552 35.6266 36.0873 42.3043C36.0873 42.3043 37.1222 42.4908 38.8351 42.5654C40.6193 42.6774 41.4401 42.6774 41.4401 42.6774C42.1895 39.7302 43.0816 35.6639 44.1165 33.9105C44.9729 32.4929 46.2576 32.3437 47.007 32.2318C48.1489 32.0826 49.1481 32.0453 49.5763 32.0453C50.0402 32.0453 51.0037 32.0453 52.1456 32.2318C52.895 32.3437 54.1797 32.4929 55.0361 33.9105C56.071 35.6639 56.9988 39.7302 57.7125 42.6774C57.7125 42.6774 58.4976 42.6774 60.2818 42.5654C61.9947 42.4535 63.0296 42.3043 63.0296 42.3043C63.5649 35.6266 64.1715 26.8225 64.4927 21.5624C64.8139 16.6007 65.5276 4.81216 65.5276 4.81216C64.9209 4.73755 64.3143 4.66294 63.6006 4.62564C63.0653 4.58833 61.852 4.55103 61.852 4.55103Z" fill="#D4D2E3"/>
<path d="M76.0193 11.4895C75.3056 4.02833 70.5237 2.46149 66.3486 1.71538C64.2432 1.34232 60.4962 1.04388 58.1053 0.931964C55.9999 0.782741 51.0753 0.70813 49.5766 0.70813C48.0778 0.70813 43.1532 0.782741 41.0478 0.931964C38.6569 1.04388 34.91 1.34232 32.8046 1.71538C28.6294 2.46149 23.8476 4.02833 23.1339 11.4895C22.9198 13.5413 22.8841 16.19 22.9198 19.0252C22.9911 23.763 23.3837 26.934 23.5978 29.1723C23.7405 30.7018 24.3472 35.2531 25.1322 37.6034C26.2028 40.849 27.1663 41.7816 28.3082 42.7515C30.378 44.5049 33.8037 45.0645 34.5174 45.2137C38.3714 45.9225 46.1508 46.0718 49.6123 46.0718C53.038 46.0718 60.8531 45.9598 64.7071 45.2137C65.4208 45.0645 68.8465 44.5422 70.9163 42.7515C72.0582 41.7816 73.0217 40.849 74.0923 37.6034C74.8773 35.2531 75.484 30.6645 75.6267 29.1723C75.8408 26.9713 76.2334 23.763 76.3047 19.0252C76.2691 16.1527 76.1977 13.504 76.0193 11.4895ZM73.3786 24.0241C72.9503 29.993 72.4507 33.5744 71.737 36.1485C71.0947 38.4241 70.3096 39.9163 69.1677 40.9982C67.2407 42.8262 64.6 43.1992 63.0299 43.4604C59.6755 43.9826 54.0015 44.1692 49.5766 44.1692C45.1159 44.1692 39.4777 43.9826 36.1233 43.4604C34.5531 43.1992 31.9124 42.8262 29.9854 40.9982C28.8435 39.9163 28.0584 38.3868 27.4161 36.1485C26.7024 33.5744 26.1671 29.993 25.7746 24.0241C25.5248 20.4428 25.5605 14.6231 25.953 11.4895C26.4883 6.78894 28.7008 4.43869 33.4469 3.58066C35.6594 3.1703 38.6569 2.87185 41.476 2.72263C43.7599 2.57341 47.4711 2.4988 49.5766 2.4988C51.6463 2.46149 55.3932 2.57341 57.6414 2.72263C60.4605 2.87185 63.4581 3.1703 65.6706 3.58066C70.4167 4.476 72.6292 6.82625 73.2001 11.4895C73.5927 14.5858 73.6284 20.4055 73.3786 24.0241Z" fill="#D4D2E3"/>
</svg>
