<svg width="91" height="17" viewBox="0 0 91 17" fill="none" xmlns="http://www.w3.org/2000/svg">
<path d="M39.3739 16.6206C39.6926 16.6206 41.6311 16.6095 43.1961 16.493C45.0874 16.3517 46.0621 15.6579 46.7763 14.6638C47.6623 13.4335 47.6565 11.1264 47.6553 9.33122C47.6542 7.32633 47.6801 1.51763 47.6721 0.999607C47.6657 0.479729 47.4818 0.209615 46.9262 0.214548C46.3699 0.218249 44.8015 0.214548 44.2631 0.219481L43.3039 0.214548C42.7477 0.209614 42.5644 0.479729 42.5563 0.999607V1.55649C42.5644 2.17134 42.5488 8.03184 42.5465 9.40584V10.0145C42.5315 11.28 42.3874 12.5109 40.7146 12.7015C39.993 12.7829 39.6621 12.8193 38.7681 12.8193C37.8729 12.8193 37.5432 12.7829 36.8117 12.7015C35.1395 12.5134 35.038 11.28 35.0225 10.0145V9.40584C35.0202 8.03184 35.0046 2.17134 35.0115 1.55649V0.999607C35.0046 0.479729 34.8201 0.209615 34.2651 0.214548L33.3047 0.219481C32.7664 0.214548 31.1991 0.218248 30.6422 0.214548C30.0871 0.209614 29.9033 0.479729 29.8969 0.999607C29.8889 1.51763 29.8946 7.32633 29.8923 9.33122C29.8912 11.1264 29.8866 13.4335 30.7714 14.6638C31.4838 15.6579 32.4453 16.3517 34.3302 16.493C35.8952 16.6107 37.7761 16.6206 38.1928 16.6206H39.3739H39.3739ZM5.38052 15.8669C5.36957 16.4312 5.21394 16.6538 4.67383 16.6674C4.13199 16.684 1.48102 16.6748 0.997982 16.6704C0.517246 16.6649 0.220965 16.5089 0.219812 15.9569C0.216353 15.4056 0.216353 1.5428 0.212895 1.01613C0.211742 0.49194 0.442887 0.24341 0.950716 0.260061C1.45739 0.273011 4.06109 0.24526 4.75222 0.258212C5.27504 0.253895 5.39781 0.576429 5.39954 1.15243C5.41222 1.927 5.3932 15.3057 5.38052 15.8669M77.6137 10.2588C77.6235 11.56 77.9175 12.4308 79.3113 12.6627C80.4273 12.786 81.9369 12.8113 83.0955 12.6855C84.1561 12.5609 84.9729 12.1009 85.0208 10.8163C85.0744 9.73152 85.079 9.54466 85.0824 8.40068C85.0882 5.6243 85.06 1.5917 85.0686 1.19578L85.0732 1.02742C85.0646 0.41257 85.3268 0.15294 85.8133 0.15294L86.1044 0.142456C86.6584 0.147389 88.8874 0.15294 89.4269 0.15294C89.9134 0.15294 90.1757 0.41257 90.1676 1.02742L90.1607 1.21921C90.1711 1.79891 90.1544 7.94063 90.1486 9.75311C90.1181 10.6634 90.0575 12.7836 89.4021 14.128C88.8315 15.2948 87.8101 16.1921 86.0733 16.3765C82.7352 16.7323 79.6917 16.5843 77.348 16.4795C75.606 16.3832 74.4838 15.9657 73.5528 14.8588C72.4991 13.5896 72.4438 11.4207 72.4594 8.9329C72.4392 3.44365 72.4236 1.86182 72.4317 1.33824V1.02742C72.4236 0.41257 72.6859 0.15294 73.1724 0.15294L73.4618 0.142456C74.0209 0.147389 76.3335 0.15294 76.8742 0.15294C77.3589 0.15294 77.6235 0.41257 77.6137 1.02742C77.6057 1.64474 77.6114 8.6745 77.6137 10.223M51.6488 0.201597C52.1699 0.184947 61.4895 0.196664 64.4033 0.213931C66.9834 0.244766 67.9373 0.637604 68.6377 1.64036C69.4458 2.79914 69.5294 4.25085 68.8763 5.4454C68.4077 6.30199 67.5408 7.04943 66.2403 7.72842C65.208 8.29578 63.4003 9.1567 61.6336 9.98862C59.2674 11.1067 57.1248 12.0749 56.7645 12.2766C56.2769 12.5504 56.4613 12.9605 56.8487 12.9543C57.8597 12.9414 67.622 12.8563 68.1431 12.855C68.6665 12.8545 68.8366 13.0561 68.8366 13.6574C68.8355 14.2864 68.8412 15.3619 68.8423 15.8497C68.8302 16.4362 68.6556 16.5966 68.1362 16.6021C67.5431 16.6089 57.1438 16.612 56.4043 16.6157C54.7603 16.6114 53.0674 16.6181 52.0575 16.0946C50.7963 15.439 50.3697 14.1248 50.3686 13.2035C50.4285 10.9581 51.5981 10.239 53.7055 9.19431C56.0486 8.0565 62.9657 4.85521 63.3778 4.65047C63.8885 4.39577 63.73 3.89501 63.2562 3.91166C62.8925 3.91968 52.2973 3.97765 51.7739 3.97703C51.2522 3.97519 50.9202 3.88514 50.9202 3.34368C50.9213 2.80469 50.9156 1.45288 50.9156 0.896618C50.9156 0.337887 51.1254 0.219481 51.6488 0.201597M24.2854 8.64539C21.9417 7.60378 15.103 5.28931 14.1957 4.8089C13.7588 4.60786 13.7882 4.01089 14.3796 4.01089C15.3895 4.02693 25.4135 4.04789 25.9369 4.05159C26.4597 4.05283 26.6799 3.83513 26.6799 3.23262C26.6822 2.6042 26.6781 1.45097 26.6712 0.944659C26.6643 0.429715 26.4908 0.234838 26.0585 0.233604C25.6262 0.233604 14.0493 0.248405 14.0493 0.248405C10.8185 0.240388 9.98959 0.749165 9.07423 1.92521C7.88103 3.45956 8.26032 5.53661 8.94511 6.60781C9.71636 7.80606 10.9897 8.33581 13.0158 9.09435C15.4702 9.94848 21.2506 12.1236 21.2506 12.1236C21.7803 12.3684 21.74 12.9623 21.0857 12.9623C21.0857 12.9623 10.0593 12.8562 9.53709 12.855C9.0137 12.8544 8.75835 13.1276 8.75604 13.6684C8.75604 14.2093 8.75143 15.2003 8.74912 15.7627C8.74912 16.319 8.90015 16.6366 9.42354 16.6563C9.94347 16.6754 19.4245 16.6372 22.34 16.631C24.5581 16.6249 26.7006 15.8916 27.1405 13.2706C27.4039 11.0123 26.5104 9.61238 24.2854 8.64539" fill="#D4D2E3"/>
</svg>
