<svg width="79" height="56" viewBox="0 0 79 56" fill="none" xmlns="http://www.w3.org/2000/svg">
<path d="M56.8274 25.8594C56.8274 25.8594 53.591 26.8371 47.3306 30.8588C41.7182 34.4705 39.5174 36.897 39.5174 36.897L22.2026 24.3874C22.2026 24.3874 29.487 18.7874 35.5734 23.0765L43.7381 28.9316L44.734 28.2468L22.2061 11.7472C22.2061 11.7472 25.4438 10.7683 31.7006 6.74898C37.3165 3.1361 39.5174 0.708389 39.5174 0.708389L56.831 13.218C56.831 13.218 49.5478 18.8179 43.4602 14.5289L35.2955 8.67259L34.2996 9.35611L56.8274 25.8594Z" fill="#D4D2E3"/>
<path d="M43.4179 42.9243H30.2398V45.9879H36.6053L30.0156 52.4191V54.986H43.3934V51.9101H36.7372L43.4179 45.4948V42.9243Z" fill="#D4D2E3"/>
<path d="M22.4805 55.2947C27.7508 55.2947 29.1005 53.8874 29.1005 50.7847V42.9242H24.9253V50.3148C24.9253 51.5561 23.9095 52.2957 22.4805 52.2957C20.9942 52.2957 20.0379 51.5524 20.0379 50.2952V42.9242H15.8628V50.7847C15.8628 53.8874 17.2125 55.2947 22.4805 55.2947Z" fill="#D4D2E3"/>
<path d="M51.0682 55.2947C56.3386 55.2947 57.6882 53.8874 57.6882 50.7847V42.9242H53.5119V50.3148C53.5119 51.5561 52.495 52.2957 51.0682 52.2957C49.582 52.2957 48.6222 51.5524 48.6222 50.2952V42.9242H44.4482V50.7847C44.4482 53.8874 45.7979 55.2947 51.0682 55.2947Z" fill="#D4D2E3"/>
<path d="M78.531 42.9244H74.1772V54.9861H78.531V42.9244Z" fill="#D4D2E3"/>
<path d="M73.514 42.9243H67.786L63.1509 47.0865V42.9243H58.7959V54.986H63.1509V50.7079L67.4556 54.986H73.305L66.9384 48.7977L73.514 42.9243Z" fill="#D4D2E3"/>
<path d="M5.5716 46.2574C5.5716 45.3248 6.89327 45.2943 7.33927 45.2943C7.78644 45.2943 8.79404 45.4811 9.47939 46.6565H14.4029C14.4029 44.3838 12.3422 42.5761 7.35445 42.5761C1.81443 42.5761 0.871055 45.1173 0.871055 46.5771C0.871055 49.2685 2.86523 50.057 7.2015 50.5403C7.57278 50.5806 9.82848 50.4695 9.82848 51.6034C9.82848 52.4432 8.56053 52.4993 8.09351 52.4993C7.62999 52.4993 6.7625 52.42 6.04563 51.0859H0.623535C0.623535 53.7345 2.33166 55.2651 8.08534 55.2651C13.3848 55.2651 14.7917 53.0034 14.7917 51.2836C14.7917 49.6139 13.6954 47.9149 9.17699 47.3107C7.29257 47.0556 5.5716 46.9482 5.5716 46.2574Z" fill="#D4D2E3"/>
</svg>
