<svg width="78" height="53" viewBox="0 0 78 53" fill="none" xmlns="http://www.w3.org/2000/svg">
<path d="M38.9049 0.0999756C17.42 0.0999756 0 11.8808 0 26.409C0 40.9426 17.42 52.7288 38.9049 52.7288C60.3898 52.7288 77.8098 40.9479 77.8098 26.409C77.8098 11.8701 60.3898 0.0999756 38.9049 0.0999756ZM38.9049 41.4344C35.7093 41.4344 33.1016 34.8544 32.938 26.5747C34.8605 26.7511 36.8597 26.8473 38.9049 26.8473C40.9501 26.8473 42.9493 26.7511 44.8718 26.5747C44.7082 34.8491 42.1005 41.4344 38.9049 41.4344ZM33.3317 20.0001C34.2009 14.1471 36.3689 9.99393 38.9049 9.99393C41.441 9.99393 43.6089 14.1471 44.4781 20.0001C42.6936 20.1658 40.8325 20.2567 38.9049 20.2567C36.9773 20.2567 35.1162 20.1658 33.3317 20.0001ZM38.9049 3.90575C34.7327 3.90575 31.174 10.4376 29.86 19.5565C21.9502 18.2683 16.4281 15.3284 16.4281 11.9129C16.4281 7.3053 26.4905 3.56901 38.9049 3.56901C51.3193 3.56901 61.3817 7.3053 61.3817 11.9129C61.3817 15.3284 55.8596 18.2683 47.9498 19.5565C46.6358 10.4376 43.0771 3.90575 38.9049 3.90575ZM5.57829 25.4255C5.57829 20.9676 7.21957 16.7823 10.0777 13.1904C10.0471 13.4416 10.0266 13.6981 10.0266 13.9547C10.0266 19.5725 18.0847 24.3618 29.3282 26.1257C29.318 26.532 29.318 26.9435 29.318 27.3551C29.318 37.8264 32.125 46.694 36.0058 49.7034C18.9539 48.629 5.57829 38.1684 5.57829 25.4255ZM41.804 49.7034C45.6848 46.694 48.4918 37.8264 48.4918 27.3551C48.4918 26.9382 48.4867 26.532 48.4816 26.1257C59.72 24.3618 67.7832 19.5779 67.7832 13.9547C67.7832 13.6981 67.7627 13.4416 67.7321 13.1904C70.5902 16.793 72.2315 20.9676 72.2315 25.4255C72.2315 38.1684 58.8559 48.629 41.804 49.7034Z" fill="#D4D2E3"/>
</svg>
