<svg width="638" height="255" viewBox="0 0 638 255" fill="none" xmlns="http://www.w3.org/2000/svg">
<path fill-rule="evenodd" clip-rule="evenodd" d="M0.78125 119.286C13.5693 77.5729 38.7612 49.0567 91.0111 49.4583C118.453 49.4583 131.626 63.8025 114.337 68.0483L73.2286 78.1466C235.412 250.85 412.963 241.326 568.395 54.2206C570.694 51.6242 573.85 50.0383 577.225 49.784C580.6 49.5297 583.942 50.6261 586.572 52.851C589.203 55.076 590.926 58.2631 591.393 61.7667C591.86 65.2704 591.036 68.8286 589.087 71.7204C429.538 324.178 211.702 295.49 41.9445 102.015L19.9908 137.187C12.3619 149.925 -3.71927 133.859 0.78125 119.286Z" fill="white" fill-opacity="0.14"/>
<path fill-rule="evenodd" clip-rule="evenodd" d="M551.272 15.1485C599.021 18.8206 619.932 45.2713 620.097 89.2218C620.097 103.566 637.44 91.2874 637.934 74.1317C639.361 21.2878 617.572 -4.01527 567.737 0.517483C549.46 2.18141 534.751 13.8862 551.272 15.1485Z" fill="white" fill-opacity="0.14"/>
</svg>
