<svg width="529" height="195" viewBox="0 0 529 195" fill="none" xmlns="http://www.w3.org/2000/svg">
<path fill-rule="evenodd" clip-rule="evenodd" d="M0.647776 91.4079C11.251 59.4436 32.139 37.5918 75.4622 37.8996C98.216 37.8996 109.138 48.8914 94.8029 52.145L60.7178 59.8833C195.193 192.225 342.41 184.926 471.287 41.5489C473.193 39.5593 475.81 38.344 478.608 38.1492C481.407 37.9543 484.177 38.7944 486.358 40.4994C488.54 42.2044 489.969 44.6466 490.356 47.3315C490.743 50.0163 490.059 52.7429 488.443 54.9589C356.153 248.415 175.533 226.432 34.7784 78.1737L16.5754 105.126C10.2499 114.886 -3.08384 102.576 0.647776 91.4079Z" fill="white" fill-opacity="0.15"/>
<path fill-rule="evenodd" clip-rule="evenodd" d="M457.089 11.6082C496.681 14.4221 514.019 34.6911 514.156 68.3701C514.156 79.3619 528.536 69.9529 528.945 56.8067C530.129 16.3127 512.062 -3.07688 470.741 0.396544C455.587 1.6716 443.391 10.6409 457.089 11.6082Z" fill="white" fill-opacity="0.15"/>
</svg>
