<svg width="65" height="50" viewBox="0 0 65 50" fill="none" xmlns="http://www.w3.org/2000/svg">
<g clip-path="url(#clip0_301_49647)">
<path d="M0 18.417H49C53.2435 18.417 57.3131 20.0807 60.3137 23.0422C63.3143 26.0037 65 30.0204 65 34.2085C65 38.3967 63.3143 42.4134 60.3137 45.3749C57.3131 48.3363 53.2435 50.0001 49 50.0001H10C7.34784 50.0001 4.8043 48.9603 2.92893 47.1093C1.05357 45.2584 0 42.748 0 40.1304L0 18.417Z" fill="#768CAC"/>
<path d="M10 18.4168C7.34784 18.4168 4.8043 17.377 2.92893 15.5261C1.05357 13.6751 0 11.1647 0 8.54712V18.4168H10Z" fill="#768CAC"/>
<path d="M5.00005 0V17.0944C3.47998 16.2281 2.21771 14.9822 1.34011 13.4818C0.462509 11.9815 0.000488281 10.2796 0.000488281 8.54718C0.000488281 6.81476 0.462509 5.11287 1.34011 3.61253C2.21771 2.1122 3.47998 0.866283 5.00005 0Z" fill="#17376D"/>
</g>
<defs>
<clipPath id="clip0_301_49647">
<rect width="65" height="50" fill="white"/>
</clipPath>
</defs>
</svg>
