<svg width="29" height="29" viewBox="0 0 29 29" fill="none" xmlns="http://www.w3.org/2000/svg">
<ellipse cx="14.8077" cy="14.4892" rx="9.83655" ry="9.83633" fill="#3972D5"/>
<path d="M14.8077 26.3255C21.3448 26.3255 26.6443 21.0262 26.6443 14.4892C26.6443 7.95209 21.3448 2.65283 14.8077 2.65283C8.27064 2.65283 2.97119 7.95209 2.97119 14.4892C2.97119 21.0262 8.27064 26.3255 14.8077 26.3255Z" stroke="#3972D5" stroke-opacity="0.15" stroke-width="4"/>
<path fill-rule="evenodd" clip-rule="evenodd" d="M8.67529 14.3118C8.931 13.5139 9.43475 12.9685 10.4795 12.9762C11.0283 12.9762 11.2917 13.2505 10.946 13.3317L10.124 13.5249C13.367 16.8282 16.9174 16.646 20.0254 13.0672C20.0714 13.0176 20.1345 12.9872 20.202 12.9824C20.2695 12.9775 20.3363 12.9985 20.3889 13.041C20.4415 13.0836 20.476 13.1446 20.4853 13.2116C20.4946 13.2786 20.4782 13.3467 20.4392 13.402C17.2488 18.2308 12.8929 17.682 9.4984 13.9814L9.05941 14.6542C8.90686 14.8978 8.5853 14.5905 8.67529 14.3118Z" fill="white"/>
<path fill-rule="evenodd" clip-rule="evenodd" d="M19.6827 12.32C20.6376 12.3903 21.0557 12.8962 21.059 13.7368C21.059 14.0112 21.4058 13.7763 21.4157 13.4482C21.4442 12.4375 21.0085 11.9535 20.012 12.0402C19.6465 12.072 19.3524 12.2959 19.6827 12.32Z" fill="white"/>
</svg>
