<svg width="21" height="21" viewBox="0 0 21 21" fill="none" xmlns="http://www.w3.org/2000/svg">
<ellipse cx="10.8077" cy="10.4892" rx="9.83655" ry="9.83633" fill="#3972D5"/>
<path fill-rule="evenodd" clip-rule="evenodd" d="M4.67529 10.3118C4.931 9.51391 5.43475 8.96847 6.47955 8.97615C7.02829 8.97615 7.29169 9.25052 6.94598 9.33173L6.12397 9.52488C9.36702 12.8282 12.9174 12.646 16.0254 9.06724C16.0714 9.01758 16.1345 8.98725 16.202 8.98238C16.2695 8.97752 16.3363 8.99849 16.3889 9.04105C16.4415 9.0836 16.476 9.14457 16.4853 9.21158C16.4946 9.2786 16.4782 9.34665 16.4392 9.40197C13.2488 14.2308 8.89291 13.682 5.4984 9.98142L5.05941 10.6542C4.90686 10.8978 4.5853 10.5905 4.67529 10.3118Z" fill="white"/>
<path fill-rule="evenodd" clip-rule="evenodd" d="M15.6827 8.32002C16.6376 8.39026 17.0557 8.89619 17.059 9.73684C17.059 10.0112 17.4058 9.77635 17.4157 9.44821C17.4442 8.43745 17.0085 7.95347 16.012 8.04017C15.6465 8.072 15.3524 8.29588 15.6827 8.32002Z" fill="white"/>
</svg>
